# xmcd
#
# Track frame offsets: 
#        150
#        18108
#        30020
#        41925
#        51296
#        103028
#        119196
#        134867
#        152298
#        170915
#        186125
#        204481
#        219979
#        233168
#        246474
#        260578
#        279029
#        294454
#        302597
#        316195
#
# Disc length: 4403 seconds
#
# Revision: 0
# Processed by: cddbd v1.5.2PL0 Copyright (c) Steve Scherf et al.
# Submitted via: ExactAudioCopy v0.95b3
#
DISCID=21113114
DTITLE=Enrico Marcias - To Israel with love
DYEAR=2001
DGENRE=Ethnic
TTITLE0=Zingarella
TTITLE1=Juif espagnol
TTITLE2=Quand on a un frere
TTITLE3=Oh guitare guitare
TTITLE4=Chanson souvenir (Medley)
TTITLE5=Aye aye aye je t'aime
TTITLE6=Le mendiant de l'amour
TTITLE7=Mon chanteur prefere
TTITLE8=Bine el barah ouel liom
TTITLE9=Sidi h'bibi
TTITLE10=Le violon de mon pere
TTITLE11=Poi poi poi
TTITLE12=Kol ha'olam kulo
TTITLE13=Enfants de tous pays
TTITLE14=Le grand pardon
TTITLE15=Un berger vient de tomber
TTITLE16=Al kol ele
TTITLE17=Yerushalaim shel zahav
TTITLE18=Dieu de l'esperance
TTITLE19=Hatikva
EXTD=
EXTT0=
EXTT1=
EXTT2=
EXTT3=
EXTT4=
EXTT5=
EXTT6=
EXTT7=
EXTT8=
EXTT9=
EXTT10=
EXTT11=
EXTT12=
EXTT13=
EXTT14=
EXTT15=
EXTT16=
EXTT17=
EXTT18=
EXTT19=
PLAYORDER=
